<svg version="1.1" id="Layer_1" xmlns="http://www.w3.org/2000/svg" xmlns:xlink="http://www.w3.org/1999/xlink" x="0px" y="0px"
	 viewBox="0 0 700 700" style="enable-background:new 0 0 700 700;" xml:space="preserve">
<g>
	<path fill="black" d="M546.5,211c-3.5-46.1-38.3-83.4-83.2-90.9c-5.4-0.9-10.9-1.5-16.5-1.5c-5.7,0-11.3,0.5-16.8,1.5
		c-13.2,2.3-25.6,7.1-36.6,14.1c-10.7,6.7-20.1,15.4-27.5,25.5c-0.2,0.3-0.5,0.5-0.7,0.8c-0.5,0.7-294.6,420.8-294.6,420.8
		c0.6,0,168.7,0,238.1,0c131.3,0,237.7-106.2,238.1-237.4c0-0.2,0-0.5,0-0.7v-53l80.7-39.5L546.5,211z M458.4,226.1
		c-8.2,0-14.8-6.6-14.8-14.8s6.6-14.8,14.8-14.8c8.2,0,14.8,6.6,14.8,14.8C473.1,219.5,466.5,226.1,458.4,226.1L458.4,226.1z"/>
</g>
</svg>
