<svg version="1.1" id="Layer_1" xmlns="http://www.w3.org/2000/svg" xmlns:xlink="http://www.w3.org/1999/xlink" x="0px" y="0px"
	 viewBox="0 0 700 700" style="enable-background:new 0 0 700 700;" xml:space="preserve">
<g>
	<path fill="black" d="M478.2,199.1c0.9,0.6,2,1.1,3.1,1.8c1.1,0.7,2.3,1.5,3.6,2.3c1.3,0.8,2.7,1.7,4.1,2.6c1.4,1,2.9,2,4.4,3.1
		c1.5,1.1,3.2,2.2,4.8,3.5c1.6,1.3,3.2,2.6,4.9,3.9c1.7,1.3,3.4,2.8,5.1,4.3c1.7,1.5,3.5,3,5.2,4.7c3.4,3.3,7,6.7,10.4,10.5
		c1.7,1.8,3.5,3.7,5.1,5.7c1.6,2,3.3,3.9,4.9,5.9c3.1,4.1,6.3,8.1,9.1,12.4c3,4.1,5.5,8.5,8.1,12.7c1.2,2.1,2.3,4.2,3.5,6.3
		c0.6,1,1.1,2.1,1.7,3.1c0.5,1,1,2.1,1.5,3.1c1,2,1.9,4,2.9,5.9c0.8,2,1.6,3.8,2.4,5.6c0.8,1.8,1.6,3.6,2.2,5.2
		c0.6,1.7,1.2,3.3,1.7,4.8c0.6,1.5,1.1,2.9,1.5,4.2c0.4,1.3,0.8,2.6,1.1,3.7c1.4,4.4,2.1,7,2.1,7s-0.4-2.6-1-7.2
		c-0.2-1.1-0.3-2.4-0.5-3.8c-0.3-1.4-0.6-2.9-0.9-4.5c-0.3-1.6-0.6-3.3-1-5.1c-0.3-1.8-0.9-3.6-1.3-5.6c-0.5-2-1-4-1.5-6.1
		c-0.6-2.1-1.3-4.2-1.9-6.4c-0.3-1.1-0.7-2.2-1-3.4c-0.4-1.1-0.8-2.3-1.2-3.4c-0.8-2.3-1.7-4.6-2.5-7c-2-4.7-3.8-9.6-6.2-14.4
		c-2.2-4.9-4.8-9.7-7.4-14.5c-1.4-2.4-2.8-4.7-4.2-7.1c-1.4-2.4-2.9-4.6-4.4-6.9c-2.9-4.6-6.2-8.8-9.3-13c-1.6-2.1-3.2-4-4.8-5.9
		c-1.6-1.9-3.1-3.8-4.8-5.6c-1.6-1.8-3.2-3.5-4.7-5.2c-1.5-1.7-3.1-3.2-4.6-4.6c-1.5-1.5-2.9-2.9-4.3-4.2c-1.4-1.3-2.8-2.5-4-3.6
		c-1.3-1.1-2.5-2.2-3.6-3.2c-1.1-1-2.2-1.8-3.1-2.6c-3.8-3.1-6-4.9-6-4.9l-14.9,22.6C472.3,195.7,474.5,196.9,478.2,199.1
		L478.2,199.1z"/>
	<path fill="black" d="M162.9,346.2c0-1.1,0-2.4,0-3.7c0.1-1.4,0.1-2.8,0.2-4.4c0.1-3.1,0.2-6.7,0.7-10.6c0.2-1.9,0.4-4,0.6-6.1
		c0.3-2.1,0.6-4.2,1-6.4c0.6-4.5,1.7-9.1,2.6-13.9c0.6-2.4,1.2-4.8,1.9-7.3c0.3-1.2,0.6-2.5,1-3.7c0.4-1.2,0.8-2.5,1.2-3.7
		c0.8-2.5,1.5-5,2.4-7.5c0.9-2.5,1.9-5,2.8-7.4c0.9-2.5,2.1-4.9,3.1-7.3l1.6-3.6c0.6-1.2,1.2-2.4,1.8-3.5c1.2-2.3,2.3-4.7,3.5-7
		c1.3-2.3,2.5-4.5,3.8-6.7c1.2-2.2,2.6-4.2,3.9-6.3c1.3-2.1,2.5-4.1,3.9-6c2.7-3.8,5.2-7.4,7.7-10.6c1.3-1.6,2.5-3.1,3.6-4.6
		c1.2-1.4,2.4-2.7,3.4-4c2.2-2.5,4.1-4.7,5.8-6.4c3.3-3.5,5.2-5.4,5.2-5.4s-2.2,1.7-6,4.6c-1.9,1.4-4.2,3.3-6.7,5.5
		c-1.3,1.1-2.7,2.3-4.1,3.5c-1.4,1.3-2.8,2.7-4.3,4.1c-3.1,2.8-6.2,6.1-9.5,9.5c-1.7,1.7-3.3,3.6-4.9,5.5c-1.6,1.9-3.4,3.8-5,5.9
		c-1.6,2.1-3.3,4.2-4.9,6.3c-1.7,2.1-3.2,4.4-4.8,6.7c-0.8,1.1-1.6,2.3-2.4,3.4l-2.2,3.5c-1.5,2.4-3.1,4.7-4.5,7.2
		c-1.4,2.5-2.8,4.9-4.2,7.4c-1.4,2.5-2.5,5-3.8,7.5c-0.6,1.3-1.2,2.5-1.9,3.8c-0.6,1.3-1.1,2.5-1.7,3.8c-1.1,2.5-2.2,5-3.2,7.5
		c-1.8,5-3.8,9.9-5.2,14.6c-0.7,2.4-1.5,4.7-2.1,6.9c-0.6,2.3-1.1,4.4-1.7,6.5c-1.2,4.2-1.9,8.1-2.6,11.6c-0.3,1.7-0.7,3.4-1,4.9
		c-0.2,1.5-0.4,2.9-0.6,4.2c-0.7,5-1.1,7.9-1.1,7.9l27,1.2C163,353.2,162.9,350.7,162.9,346.2L162.9,346.2z"/>
	<path fill="black" d="M452.6,540.6c-1,0.6-2.5,1.5-4.4,2.6c-1.9,1.1-4.2,2.4-6.9,3.8c-2.7,1.5-5.8,3-9.2,4.6c-3.4,1.6-7.2,3.2-11.3,4.8
		c-2,0.8-4.1,1.6-6.3,2.4c-2.2,0.8-4.4,1.5-6.7,2.2c-4.6,1.5-9.3,2.8-14.3,4c-4.9,1.1-10,2.2-15.1,3c-2.6,0.4-5.1,0.8-7.6,1.1
		c-2.5,0.4-5.2,0.5-7.8,0.8c-5,0.4-10.1,0.7-15,0.7c-9.8,0.2-19-0.5-26.9-1.4c-7.9-0.9-14.4-2.1-19-3.1c-2.3-0.5-4.1-0.9-5.3-1.2
		c-1.2-0.3-1.9-0.4-1.9-0.4s0.6,0.3,1.8,0.7c1.2,0.5,2.9,1.2,5,2c4.4,1.7,10.7,3.9,18.5,6.1c7.8,2.2,17,4.3,27.1,5.8
		c5.1,0.7,10.2,1.3,15.7,1.7c2.7,0.1,5.2,0.4,8,0.4c2.8,0.1,5.6,0.2,8.3,0.1c5.5,0,11-0.2,16.5-0.6c5.4-0.5,10.8-1,15.9-1.8
		c2.6-0.4,5.1-0.8,7.6-1.3c2.5-0.4,4.9-1,7.2-1.5c4.7-1,9.1-2.2,13.2-3.3c4.1-1.2,7.8-2.3,11-3.4c3.3-1.1,6.1-2.2,8.4-3
		c2.3-0.9,4.1-1.7,5.3-2.1c1.2-0.5,1.9-0.8,1.9-0.8l-12.5-24C454.1,539.7,453.6,540,452.6,540.6L452.6,540.6z"/>
	<path fill="black" d="M360.5,323.5c-22.5,0-40.8,18.3-40.8,40.8s18.3,40.8,40.8,40.8s40.8-18.3,40.8-40.8S383,323.5,360.5,323.5z"/>
	<path fill="black" d="M450.2,299.1c-8.1-11.3-18.4-20.9-30.2-28.3c13.3-50.7,40.8-101.1,51.6-119.8c3.9-6.7,5.4-14.6,3.7-22.2
		c-19.3-86.6-300.1-84-211.3,188.2c-6.3,13.6-9.8,28.7-10,44.6C204,375,147.7,376.3,126.4,376.3c-7.8,0-15.4,2.6-21.1,7.9
		c-65.6,60.4,78.9,304.5,271.7,85.5c13.7-1.8,26.6-6.2,38.1-12.7c37.8,36.9,68.2,86.8,79.1,105.7c3.9,6.7,10,12,17.4,14.3
		C596.5,603.7,735.6,356.8,450.2,299.1L450.2,299.1z M360.5,422.1c-31.9,0-57.8-25.9-57.8-57.8s25.9-57.8,57.8-57.8
		c31.9,0,57.8,25.9,57.8,57.8C418.3,396.2,392.3,422.1,360.5,422.1z"/>
</g>
</svg>
