<svg version="1.1" id="Layer_1" xmlns="http://www.w3.org/2000/svg" xmlns:xlink="http://www.w3.org/1999/xlink" x="0px" y="0px"
	 viewBox="0 0 700 700" style="enable-background:new 0 0 700 700;" xml:space="preserve">
<style type="text/css">
	.st0{fill-rule:evenodd;clip-rule:evenodd;}
</style>
<g>
	<path fill="black" class="st0" d="M383.9,221.6c-1.7-1.8-4-2.8-6.4-2.8s-4.8,1-6.4,2.8c0,0-114.1,124-114.1,257.3c0,66.5,54,120.5,120.5,120.5
		c66.5,0,120.5-54,120.5-120.5C497.9,345.5,383.9,221.6,383.9,221.6L383.9,221.6z"/>
	<path fill="black" class="st0" d="M226.4,155.9c-1.7-1.8-4-2.8-6.4-2.8s-4.8,1-6.4,2.8c0,0-55.9,61-55.9,126.5c0,34.4,27.9,62.3,62.3,62.3
		c34.4,0,62.3-27.9,62.3-62.3C282.3,216.9,226.4,155.9,226.4,155.9L226.4,155.9z"/>
	<path fill="black" class="st0" d="M497,103.4c-1.7-1.8-4-2.8-6.4-2.8c-2.4,0-4.8,1-6.4,2.8c0,0-45.4,49.6-45.4,102.9c0,28.6,23.2,51.8,51.8,51.8
		s51.8-23.2,51.8-51.8C542.4,153,497,103.4,497,103.4L497,103.4z"/>
</g>
</svg>
