<svg version="1.1" id="Layer_1" xmlns="http://www.w3.org/2000/svg" xmlns:xlink="http://www.w3.org/1999/xlink" x="0px" y="0px"
	 viewBox="0 0 700 700" style="enable-background:new 0 0 700 700;" xml:space="preserve">
<g>
	<path fill="black" d="M595.8,571.5H155.7c-4.5,0-7.3-3.9-6.7-7.8c3.4-17.4,16.2-31.4,33-37c2.2-23,20.2-41.4,43.1-44.2
		c4.5-54.9,4.5-113.7-4.5-155.1c-1.7-7.3-9-11.2-16.2-9c-25.2,8.4-40.9,31.9-53.2,69.4c-1.7,5.6-9.5,5.6-11.2,0
		c-10.6-37-2.2-77.3,23-100.2c-22.4,5.6-47.6,20.2-68.9,38.1c-4.5,3.4-10.6-0.6-9.5-6.2c11.8-45.9,48.7-80.6,85.7-87.9
		c-12.9-7.3-27.4-12.3-43.1-15.7c-6.2-1.1-6.2-9.5-0.6-11.2c33.6-10.6,69.4-6.2,95.8,8.4c16.8-21.3,44.8-35.8,74.5-38.6
		c5.6-0.6,8.4,6.7,3.9,10.6c-10.1,9-19,18.5-25.8,28.6c37.5-5.6,82.9,13.4,110.3,51.5c3.4,4.5-1.1,10.6-6.7,9
		c-29.7-9-54.9-13.4-75-12.3c29.7,14.6,49.8,51,49.3,92.4c0,5.6-7.8,7.8-11.2,3.4c-20.7-30.8-41.4-47.6-67.8-49.8
		c-8.4-0.6-15.1,7.8-12.3,15.7c13.4,47,21.8,115.4,26.3,177c6.2-2.8,12.9-3.9,19.6-3.9c12.3,0,23.5,4.5,31.9,11.8
		c0.6-11.8,3.9-22.4,9.5-30.2c-13.4-3.4-29.7-9.5-46.5-43.1c-1.1-2.2,0.6-5,2.8-4.5c15.1,0.6,28,5,38.1,11.8
		c-2.8-7.8-5-17.4-6.2-29.7c0-2.2,2.2-4.5,4.5-3.4c15.1,6.7,25.2,16.2,32.5,26.9c7.3-10.6,17.4-20.7,32.5-26.9
		c2.2-1.1,4.5,1.1,4.5,3.4c-1.1,12.9-3.4,22.4-6.2,29.7c10.6-6.7,23-11.2,38.1-11.8c2.2,0,3.9,2.8,2.8,4.5
		c-16.8,33-32.5,39.2-45.9,43.1c3.9,6.2,7.3,13.4,9,21.8c8.4-6.7,19-10.6,30.8-10.6c9,0,17.4,2.8,24.6,6.7l5.6-126
		c-20.7,6.7-46.5,3.9-68.3-21.8c-9.5-11.2-15.7-25.2-15.7-39.8c0-3.4,0-6.2,0.6-9.5c9-2.2,16.8-8.4,20.7-17.4
		c5-10.6,2.2-23-4.5-32.5c-9.5-12.9-20.7-24.1-33.6-33c8.4-24.6,31.9-42.6,59.4-43.1c9-25.8,33-44.2,61-44.2
		c28.6,0,52.6,18.5,61,44.2c35.3,1.1,63.3,29.7,63.3,65c0,20.2-9.5,38.1-24.1,50.4c4.5,14,5.6,30.2-4.5,49.3
		c-9,16.2-24.1,29.1-42,33.6c-12.3,3.4-23.5,2.2-34.2-1.1l9,114.2c23,2.2,41.4,20.2,44.8,43.1c19,4.5,33.6,19.6,37.5,38.1
		C603.1,567.6,599.8,571.5,595.8,571.5L595.8,571.5z"/>
</g>
</svg>
