<svg version="1.1" id="Layer_1" xmlns="http://www.w3.org/2000/svg" xmlns:xlink="http://www.w3.org/1999/xlink" x="0px" y="0px"
	 viewBox="0 0 700 700" style="enable-background:new 0 0 700 700;" xml:space="preserve">
<style type="text/css">
	.st0{fill-rule:evenodd;clip-rule:evenodd;}
</style>
<g>
	<path fill="black" class="st0" d="M617.8,560h-48.7c-13.5,0-24.3,10.9-24.3,24.3c0,13.4,10.9,24.3,24.3,24.3h48.7c13.5,0,24.4-10.9,24.4-24.3
		C642.2,570.9,631.3,560,617.8,560"/>
	<path fill="black" class="st0" d="M593.5,487c0-13.4-10.9-24.3-24.3-24.3h-48.7c-13.5,0-24.3,10.9-24.3,24.3c0,13.4,10.9,24.3,24.3,24.3h48.7
		C582.6,511.3,593.5,500.4,593.5,487"/>
	<path fill="black" class="st0" d="M471.7,560H423c-13.5,0-24.3,10.9-24.3,24.3c0,13.4,10.9,24.3,24.3,24.3h48.7c13.5,0,24.3-10.9,24.3-24.3
		C496.1,570.9,485.2,560,471.7,560"/>
	<path fill="black" class="st0" d="M447.4,487c0-13.4-10.9-24.3-24.3-24.3h-48.7c-13.5,0-24.3,10.9-24.3,24.3c0,13.4,10.9,24.3,24.3,24.3H423
		C436.5,511.3,447.4,500.4,447.4,487"/>
	<path fill="black" class="st0" d="M325.7,560H277c-13.5,0-24.3,10.9-24.3,24.3c0,13.4,10.9,24.3,24.3,24.3h48.7c13.5,0,24.3-10.9,24.3-24.3
		C350,570.9,339.1,560,325.7,560"/>
	<path fill="black" class="st0" d="M301.3,487c0-13.4-10.9-24.3-24.3-24.3h-48.7c-13.5,0-24.3,10.9-24.3,24.3c0,13.4,10.9,24.3,24.3,24.3H277
		C290.4,511.3,301.3,500.4,301.3,487"/>
	<path fill="black" class="st0" d="M179.6,560h-48.7c-13.5,0-24.3,10.9-24.3,24.3c0,13.4,10.9,24.3,24.3,24.3h48.7c13.5,0,24.3-10.9,24.3-24.3
		C203.9,570.9,193,560,179.6,560"/>
	<path fill="black" class="st0" d="M155.2,487c0-13.4-10.9-24.3-24.3-24.3H82.2c-13.5,0-24.4,10.9-24.4,24.3c0,13.4,10.9,24.3,24.4,24.3h48.7
		C144.3,511.3,155.2,500.4,155.2,487"/>
	<path fill="black" class="st0" d="M82.2,413.9h535.7c13.5,0,24.4-10.9,24.4-24.3s-10.9-24.3-24.4-24.3h-74.7c-12.1-95.9-94-170.4-193.1-170.4
		s-181,74.5-193.1,170.4H82.2c-13.5,0-24.4,10.9-24.4,24.3S68.7,413.9,82.2,413.9"/>
	<path fill="black" class="st0" d="M350,146.1c13.5,0,24.3-10.9,24.3-24.3V73.1c0-13.4-10.9-24.4-24.3-24.4s-24.3,10.9-24.3,24.4v48.7
		C325.7,135.2,336.5,146.1,350,146.1"/>
	<path fill="black" class="st0" d="M520.4,219.1c6.2,0,12.5-2.4,17.2-7.1l48.7-48.7c9.5-9.5,9.5-24.9,0-34.4c-9.5-9.5-24.9-9.5-34.4,0l-48.7,48.7
		c-9.5,9.5-9.5,24.9,0,34.4C508,216.8,514.2,219.1,520.4,219.1"/>
	<path fill="black" class="st0" d="M162.4,212c4.7,4.7,11,7.1,17.2,7.1c6.2,0,12.5-2.4,17.2-7.1c9.5-9.5,9.5-24.9,0-34.4l-48.7-48.7
		c-9.5-9.5-24.9-9.5-34.4,0s-9.5,24.9,0,34.4L162.4,212z"/>
</g>
</svg>
