<svg version="1.1" id="Layer_1" xmlns="http://www.w3.org/2000/svg" xmlns:xlink="http://www.w3.org/1999/xlink" x="0px" y="0px"
	 viewBox="0 0 700 700" style="enable-background:new 0 0 700 700;" xml:space="preserve">
<g>
	<path fill="black" d="M525,227.5c-1.1,0-2.2,0-3.4,0c-16.3-81-87.3-140-171.6-140c-70,0-132.9,41.7-160.4,105C123.4,194.1,70,248.4,70,315
		c0,67.6,54.9,122.5,122.5,122.5H525c57.9,0,105-47.1,105-105S582.9,227.5,525,227.5L525,227.5z"/>
	<path fill="black" d="M493.1,480.1C481.7,496.6,455,537.6,455,560c0,28.9,23.6,52.5,52.5,52.5c28.9,0,52.5-23.6,52.5-52.5
		c0-22.4-26.7-63.4-38.1-79.9C515.4,470.6,499.6,470.6,493.1,480.1L493.1,480.1z"/>
	<path fill="black" d="M335.6,480.1c-11.5,16.6-38.1,57.5-38.1,79.9c0,28.9,23.6,52.5,52.5,52.5s52.5-23.6,52.5-52.5c0-22.4-26.6-63.4-38.1-79.9
		C357.9,470.6,342.1,470.6,335.6,480.1L335.6,480.1z"/>
	<path fill="black" d="M178.1,480.1C166.6,496.6,140,537.6,140,560c0,28.9,23.6,52.5,52.5,52.5S245,588.9,245,560c0-22.4-26.6-63.4-38.1-79.9
		C200.4,470.6,184.6,470.6,178.1,480.1L178.1,480.1z"/>
</g>
</svg>
