<svg version="1.1" id="Layer_1" xmlns="http://www.w3.org/2000/svg" xmlns:xlink="http://www.w3.org/1999/xlink" x="0px" y="0px"
	 viewBox="0 0 700 700" style="enable-background:new 0 0 700 700;" xml:space="preserve">
<g>
	<path fill="black" d="M413.9,280c-66.6-53.2,31.4-67.2,74.5-113.7c43.1-46.5-13.4-48.7-13.4-48.7s53.8,17.4-70.6,58.8
		c-124.3,41.4-129.9,109.2-101.4,131c33.6,25.8,87.4,54.9-33.6,113.7c-79,38.6-114.2,112-126.6,144.5c-2.8,7.8,2.8,15.7,11.2,15.7
		l260.4,1.1c9.5,0,15.1-10.1,10.1-17.9c-16.2-26.9-34.2-78.4,30.2-122.1C586.4,353.4,467.7,323.7,413.9,280L413.9,280z"/>
	<path fill="black" d="M171.4,421.1l-2.2-66.1l46.5,0c7.3,0,11.2-8.4,6.7-14l-26.3-33H209c6.2,0,9.5-7.3,5.6-11.8L189.4,266h7.8
		c3.9,0,6.2-5,3.9-7.8L158,204.4c-2.2-2.2-5.6-2.2-7.8,0l-43.1,53.8c-2.8,2.8-0.6,7.8,3.9,7.8h7.8l-25.2,30.8
		c-3.9,4.5-0.6,11.8,5.6,11.8h12.9l-26.3,33c-4.5,5.6-0.6,14,6.7,14h47l-2.2,65.5c0,4.5,10.1,5,16.8,5
		C160.8,426.2,171.5,425.6,171.4,421.1L171.4,421.1z"/>
	<path fill="black" d="M615,252.6L597,230.2h9c3.9,0,6.2-5,3.9-7.8L593.1,201h5.6c2.8,0,4.5-3.4,2.8-5.6L571.9,159c-1.1-1.7-3.9-1.7-5,0
		l-29.7,36.4c-1.7,2.2,0,5.6,2.8,5.6h5.6l-16.8,21.3c-2.8,3.4-0.6,7.8,3.9,7.8h9l-17.9,22.4c-2.8,3.9-0.6,9.5,4.5,9.5h31.9
		l-1.7,44.8c0,3.4,7.3,3.4,11.8,3.4c4.5,0,11.8,0,11.8-3.4l-1.7-44.8h31.9C615,262.1,617.8,256.5,615,252.6L615,252.6z"/>
</g>
</svg>
