<svg version="1.1" id="Layer_1" xmlns="http://www.w3.org/2000/svg" xmlns:xlink="http://www.w3.org/1999/xlink" x="0px" y="0px"
	 viewBox="0 0 700 700" style="enable-background:new 0 0 700 700;" xml:space="preserve">
<g>
	<path fill="black" d="M386.9,325.1l-2.8,3.7l41.3,32l3.7-4.9l-1.4-2.8h0C419.7,337.4,404.4,326.8,386.9,325.1L386.9,325.1z"/>
	<path fill="black" d="M368.3,322.8c7.1-2.3,14.6-3,22.1-2.1l3.9-5.1c0.5-0.5,1.1-0.7,1.8-0.7c0.7,0,1.3,0.3,1.8,0.7l37.1,28.7h0
		c1.1,0.7,1.6,2.1,1.1,3.3l-3.1,3.9l17.5,35l13.3-17.5h0c6-7.9,8.6-17.9,7.3-27.7c-1.3-9.8-6.6-18.8-14.5-24.8l-38-28.7
		c-7.8-6.1-17.7-8.8-27.5-7.6c-9.8,1.2-18.8,6.2-25,13.9l-17.5,21.7c1.9,3.4,5,5.9,8.7,7.2C360.7,324.3,364.7,324.2,368.3,322.8
		L368.3,322.8z"/>
	<path fill="black" d="M578.7,478.9l-15.8-54.6c-3.3-10.8-9.9-20.2-18.9-26.9c-9-6.7-19.9-10.4-31.2-10.4h-6.5l-39.2,35c-4.1-1.4-7.4-4.3-9.3-8.2
		l-11.2-22.2l-17.5-35l-3.9,4.2l-41.6-32l2.8-3.7h0c-7.1-0.8-14.3-0.1-21.2,2.1c-3.4,1.1-7.1,1.1-10.5,0c-3.4-1.2-6.4-3.4-8.4-6.4
		l-38.7-58.4c-7.1-10.3-17.6-17.7-29.7-20.9c-12.1-3.2-24.9-2-36.1,3.4l-30.6,15.4c-12.2,6.1-21.5,16.8-25.7,29.8l-28.9,86.3
		c-1.4,4.2-2.2,8.7-2.4,13.1l-35,100.8v3c0,13.6,5.4,26.7,15,36.3c9.6,9.6,22.7,15.1,36.3,15.1h358.6c16.2,0,31.4-7.6,41.1-20.5
		C580,511.2,583.1,494.4,578.7,478.9L578.7,478.9z"/>
	<path fill="black" d="M459.2,301.6c5.5,0,10.7-2.5,14-6.8L558.7,184c3.8-5.1,4.7-11.8,2.2-17.7c-2.5-5.9-7.9-10-14.2-10.8
		c-6.3-0.8-12.6,1.8-16.4,6.9l-85.6,110.9c-2.8,3.7-4.1,8.3-3.5,12.9c0.6,4.6,3,8.8,6.6,11.6C451.2,300.4,455.1,301.7,459.2,301.6
		L459.2,301.6z"/>
</g>
</svg>
