<svg version="1.1" id="Layer_1" xmlns="http://www.w3.org/2000/svg" xmlns:xlink="http://www.w3.org/1999/xlink" x="0px" y="0px"
	 viewBox="0 0 700 700" style="enable-background:new 0 0 700 700;" xml:space="preserve">
<g>
	<path fill="black" d="M555,601.4c0,4.5-3.4,7.8-7.8,7.8v0.6l-394.2,0c-4.5,0-7.8-3.4-7.8-7.8c0-4.5,3.4-7.8,7.8-7.8h126.6l12.9-84.6
		c1.1-6.7,1.1-13.4,1.7-19.6h-29.1c-72.8,0-124.9-41.4-126-101.4c-0.6-29.1,11.2-56.6,33-76.7c-1.1-11.2-2.2-22.4-2.2-33
		c0-9.5,0.6-19.6,1.7-29.1c4.5-38.6,30.8-70.6,68.3-84c12.3-44.8,52.6-75.6,99.7-75.6c46.5,0,86.8,30.8,99.7,75
		c37.5,13.4,63.3,45.4,68.3,84c1.1,9.5,1.7,19,1.7,29.1c0,11.8-0.6,22.4-2.2,33c24.1,23,35.8,54.3,31.9,86.8
		c-5.6,52.1-52.1,91.3-107,91.3l-31.4,0c0.6,6.2,1.7,12.9,2.8,20.2l19.6,84h124.3C551.6,593.6,555,597,555,601.4L555,601.4z"/>
</g>
</svg>
